<?xml version="1.0" ?><!DOCTYPE svg  PUBLIC '-//W3C//DTD SVG 1.1//EN'  'http://www.w3.org/Graphics/SVG/1.1/DTD/svg11.dtd'><svg enable-background="new 0 0 91 91" height="91px" id="Layer_1" version="1.1" viewBox="0 0 91 91" width="91px" xml:space="preserve" xmlns="http://www.w3.org/2000/svg" xmlns:xlink="http://www.w3.org/1999/xlink"><g><path d="M72.192,28.279c-0.248-0.436-0.711-0.703-1.213-0.703H56.743l-7.119-12.328c-0.502-0.869-1.928-0.869-2.43,0l-7.117,12.328   H25.841c-0.502,0-0.965,0.268-1.215,0.703c-0.25,0.434-0.25,0.967,0,1.4l7.117,12.33l-7.117,12.33c-0.25,0.434-0.25,0.967,0,1.402   c0.25,0.434,0.713,0.701,1.215,0.701h14.236l7.117,12.328c0.252,0.432,0.715,0.701,1.215,0.701c0.502,0,0.965-0.27,1.215-0.701   l7.119-12.328h14.236c0.502,0,0.965-0.268,1.213-0.701c0.252-0.436,0.252-0.969,0-1.402l-7.117-12.33l7.117-12.33   C72.444,29.246,72.444,28.713,72.192,28.279z M48.409,18.754l5.904,10.224l-5.904,10.225l-5.902-10.225L48.409,18.754z    M28.271,30.383h11.809l5.9,10.225H34.173L28.271,30.383z M28.271,53.637l5.902-10.225h11.807l-5.9,10.225H28.271z M48.409,65.264   l-5.902-10.225l5.902-10.225l5.904,10.225L48.409,65.264z M68.548,53.637H56.743l-5.902-10.225h11.807L68.548,53.637z    M62.647,40.607H50.841l5.902-10.225h11.805L62.647,40.607z"/><circle cx="69.599" cy="72.899" r="3.394"/><circle cx="22.741" cy="17.991" r="3.393"/><path d="M13.731,73.943l-2.176,6.852c-0.166,0.521,0.021,1.092,0.463,1.412c0.223,0.162,0.484,0.242,0.748,0.242   c0.26,0,0.518-0.078,0.74-0.238l5.842-4.188l5.842,4.188c0.445,0.32,1.045,0.32,1.488-0.004c0.441-0.32,0.629-0.891,0.463-1.412   l-2.178-6.852l5.789-4.262c0.439-0.324,0.623-0.895,0.455-1.416c-0.17-0.52-0.652-0.875-1.201-0.879l-7.188-0.045l-2.264-6.822   c-0.174-0.52-0.66-0.869-1.207-0.869S18.315,60,18.144,60.52l-2.266,6.822l-7.189,0.045c-0.547,0.004-1.031,0.359-1.199,0.879   c-0.17,0.521,0.014,1.092,0.455,1.416L13.731,73.943z M16.806,69.877c0.545-0.004,1.025-0.354,1.197-0.871l1.346-4.053l1.346,4.053   c0.172,0.518,0.652,0.867,1.197,0.871l4.271,0.027l-3.439,2.533c-0.438,0.322-0.621,0.889-0.457,1.408l1.293,4.07l-3.471-2.488   c-0.441-0.318-1.039-0.318-1.48,0l-3.471,2.488l1.293-4.07c0.164-0.52-0.02-1.086-0.459-1.408l-3.439-2.533L16.806,69.877z"/><polygon points="71.642,5.18 69.579,11.393 63.032,11.434 68.302,15.315 66.319,21.553 71.642,17.739 76.96,21.553 74.978,15.315    80.247,11.434 73.702,11.393  "/></g></svg>