<svg id="Layer_1" enable-background="new 0 0 512 512" height="512" viewBox="0 0 512 512" width="512" xmlns="http://www.w3.org/2000/svg"><g><path d="m504.504 304.303c-1.11 60.98-34.52 119.49-92.2 149.76-45.05 23.64-96.06 25.08-140.41 8.29-38.1-14.42-71.29-42.31-91.54-81.14-30.17-57.86-24.36-125.03 9.41-175.76 2.86-4.3 9.5-3.07 10.62 1.96 7.89 35.43 29.76 68.61 61.59 93.14 3.32-20.44 9.62-41.57 19.05-62.42 25.61-56.58 67.96-97.08 110.33-111.11 7.18-2.37 14.35-3.99 21.44-4.79 28.07 40.66 48.01 102.75 18.07 168.89-8.04 17.77-19.05 34.44-31.81 49.44 37-3.39 70.75-17.76 95.6-40.72 3.79-3.5 9.94-.71 9.85 4.46z" fill="#ed2061"/><path d="m504.504 304.303c-1.11 60.98-34.52 119.49-92.2 149.76-45.05 23.64-96.06 25.08-140.41 8.29 180.21 0 193.36-116.2 193.36-116.2-63.91 29.13-104.88 17.09-104.88 17.09 84.24-124.86 41.14-217.81 30.98-236.22 7.18-2.37 14.35-3.99 21.44-4.79 28.07 40.66 48.01 102.75 18.07 168.89-8.04 17.77-19.05 34.44-31.81 49.44 37-3.39 70.75-17.76 95.6-40.72 3.79-3.5 9.94-.71 9.85 4.46z" fill="#c71e54"/><g><path d="m75.994 504.413c-1.23-.28-2.48-.62-3.75-1.02-20.92-6.46-46.75-27.41-58.31-53.46-10.63-23.95-6.72-46.6 1.86-63.94 1.41-2.85 3.64-5.02 6.26-6.35 3.86-1.98 8.57-2.15 12.76-.08 50.26 24.86 34.81 83.55 44.48 121.41.51 2.04-1.26 3.91-3.3 3.44z" fill="#d4e16c"/><path d="m75.994 504.413c-1.23-.28-2.48-.62-3.75-1.02-7.02-9.3-13.02-22.14-14.85-39.57-4.29-41.05-27.5-74.07-35.34-84.18 3.86-1.98 8.57-2.15 12.76-.08 50.26 24.86 34.81 83.55 44.48 121.41.51 2.04-1.26 3.91-3.3 3.44z" fill="#a4ce39"/></g><g><path d="m502.654 39.633c-11.95 1.26-25.29 6.53-38.96 10.11-18.83 4.92-38.27 6.62-55.57-9.77-4.18-3.96-4.39-10.55-.45-14.75 9.33-9.96 23.15-18.19 41.24-17.7.69.01 1.38.04 2.09.09 22.05 1.4 44.28 15.32 53.16 28.86.85 1.29.02 2.99-1.51 3.16z" fill="#d4e16c"/><path d="m502.654 39.633c-11.95 1.26-25.29 6.53-38.96 10.11 12.05-20.27-3.64-34.96-14.78-42.22.69.01 1.38.04 2.09.09 22.05 1.4 44.28 15.32 53.16 28.86.85 1.29.02 2.99-1.51 3.16z" fill="#a4ce39"/></g><g><path d="m186.364 116.013c-9.46 13.09-36.66 81.13-87.75 72.88-23.71-2.29-42.03-19.95-46.5-41.97-.69-3.39-1.05-6.89-1.05-10.45 0-2.79.22-5.62.68-8.47-29.97-4.85-49.64-34.07-42.92-63.77l.23-.99c11.25-70.06 185.93-73.5 243.51-13.65 1.12 1.15 2.18 2.32 3.2 3.52 3.07 3.62-35.75 16.33-69.4 62.9z" fill="#ffa402"/><path d="m186.364 116.013c-9.46 13.09-36.66 81.13-87.75 72.88-23.71-2.29-42.03-19.95-46.5-41.97 47.44 24.64 79.32-1.21 96.13-20.1 49.01-55.05 85.82-72.01 104.32-77.23 1.12 1.15 2.18 2.32 3.2 3.52 3.07 3.62-35.75 16.33-69.4 62.9z" fill="#ff7e50"/></g></g><g><path d="m186.82 129.942c2.326-4.155 4.335-7.743 5.63-9.534 22.056-30.526 46.081-45.733 58.988-53.903 7.694-4.87 11.205-7.092 11.907-11.705.357-2.348-.322-4.734-1.865-6.548-38.842-45.666-135.176-58.109-197.343-40.716-36.153 10.115-58.314 29.38-62.437 54.267l-.176.775c-3.72 16.436-.578 33.173 8.846 47.128 6.608 9.784 15.636 17.202 26.167 21.668-2.638 2.872-5.137 5.783-7.493 8.73-19.259 24.094-29.024 50.651-29.024 78.934 0 4.142 3.358 7.5 7.5 7.5s7.5-3.358 7.5-7.5c0-24.744 8.627-48.107 25.64-69.439 1.166-1.462 2.372-2.915 3.617-4.359 3.372 22.197 19.041 41.55 41.196 48.582.755.24 1.519.354 2.271.354 3.181 0 6.133-2.04 7.146-5.233 1.253-3.948-.932-8.165-4.879-9.418-20.793-6.6-33.97-27.682-31-49.324 11.199-10.15 24.46-19.75 39.655-28.693 10.085-5.936 20.211-11.093 29.793-15.508 7.997 1.778 24.288 6.395 32.108 12.942 1.404 1.176 3.112 1.75 4.81 1.75 2.143 0 4.271-.914 5.754-2.686 2.659-3.176 2.24-7.906-.936-10.565-5.414-4.534-12.859-8.061-19.948-10.682 19.986-7.781 34.135-11.455 34.381-11.518 4.013-1.025 6.434-5.108 5.41-9.121-1.024-4.014-5.112-6.439-9.121-5.413-1.831.467-45.349 11.741-89.569 37.702-2.232 1.311-4.427 2.636-6.582 3.975 1.755-10.03 5.505-23.298 13.515-33.944 2.491-3.31 1.827-8.012-1.483-10.502-3.308-2.491-8.012-1.827-10.502 1.483-14.444 19.195-17.346 44.307-17.927 53.957-7.217 5.233-13.892 10.649-20.008 16.233-10.441-2.799-19.401-9.18-25.561-18.302-7.082-10.486-9.443-23.066-6.649-35.411l.226-.993c.036-.157.066-.316.092-.475 4.094-25.491 34.154-37.537 51.709-42.449 55.093-15.414 139.71-5.192 176.955 30.76-.572.364-1.153.731-1.718 1.089-12.78 8.09-39.374 24.923-63.123 57.791-1.802 2.493-3.902 6.244-6.561 10.993-9.285 16.585-26.567 47.455-51.46 56.711-3.882 1.443-5.859 5.761-4.416 9.644 1.443 3.882 5.761 5.859 9.643 4.416 30.062-11.177 49.096-45.177 59.322-63.443z"/><path d="m378.015 459.796c-39.249 11.271-80.054 7.092-115.162-9.421 16.237-19.239 30.242-38.803 42.178-57.511 7.758 3.332 22.021 7.896 41.941 7.896 20.569 0 47.173-4.871 78.852-20.994 3.692-1.878 5.161-6.394 3.283-10.086s-6.395-5.161-10.085-3.283c-36.793 18.725-65.504 20.532-83.112 18.751-10.12-1.024-17.836-3.317-22.849-5.244 8.993-14.944 16.622-29.128 22.978-41.902 26.352-52.962 36.839-92.725 37.273-94.391 1.042-4.008-1.361-8.101-5.368-9.145-4.006-1.044-8.103 1.359-9.148 5.366-.069.264-4.76 18.011-15.489 45.091-5.219-16.436-13.969-28.585-14.531-29.356-2.44-3.342-7.12-4.072-10.467-1.637-3.346 2.435-4.084 7.124-1.654 10.473.175.241 17.206 24.017 15.357 47.126-2.924 6.454-6.112 13.189-9.575 20.139-10.467 21.002-24.474 45.926-42.425 71.691-5.729-17.973-19.544-47.898-52.455-79.392-2.993-2.864-7.74-2.76-10.604.234-2.864 2.993-2.759 7.74.234 10.604 40.104 38.377 49.472 74.266 51.395 84.332-6.049 8.03-12.483 16.082-19.313 24.063-25.816-15.202-47.677-37.495-62.255-65.45-27.301-52.354-24.566-115.209 6.94-164.97 8.957 35.837 31.372 68.996 63.444 93.721 2.092 1.613 6.466 3.529 7.336 1.035 23.132-66.313 4.221-3.163 4.646-5.771 3.32-20.403 9.54-40.772 18.487-60.543 1.707-3.774.033-8.218-3.741-9.926s-8.217-.034-9.925 3.741c-7.644 16.892-13.415 34.217-17.217 51.66-25.219-22.404-42.553-50.746-49.271-80.909-1.164-5.231-5.325-9.244-10.6-10.226-5.277-.983-10.614 1.267-13.586 5.734-36.466 54.794-40.227 125.065-9.813 183.389 15.439 29.608 38.363 53.395 65.454 69.936-13.991 15.308-29.495 30.189-46.6 43.978-3.224 2.6-3.731 7.322-1.132 10.547 1.482 1.838 3.653 2.794 5.844 2.794 1.652 0 3.316-.544 4.702-1.661 18.717-15.089 35.568-31.422 50.665-48.195 24.785 12.374 52.344 19.037 80.463 19.035 16.301 0 32.799-2.241 49.044-6.906 3.981-1.143 6.282-5.298 5.138-9.279-1.142-3.98-5.295-6.282-9.277-5.138z"/><path d="m504.081 291.974c-4.89-2.193-10.588-1.264-14.515 2.364-19.448 17.963-44.917 30.48-73.043 36.123 8.486-11.741 15.579-23.875 21.175-36.239 36.786-81.291-.845-150.335-18.731-176.247-1.573-2.277-4.268-3.506-7.019-3.191-43.526 4.946-88.42 37.668-120.094 87.53-2.221 3.496-1.187 8.131 2.309 10.352 3.496 2.222 8.131 1.189 10.352-2.309 28.155-44.324 66.977-73.916 104.667-80.052 10.174 15.549 22.223 39.017 26.998 68.039 5.033 30.583.945 60.76-12.147 89.693-7.433 16.425-17.761 32.466-30.695 47.677-1.975 2.322-2.348 5.609-.943 8.315s4.313 4.294 7.342 4.013c37.127-3.411 71.464-17.616 97.153-40.118-2.379 58.257-35.309 111.166-86.621 138.734-3.649 1.961-5.018 6.508-3.057 10.157 1.353 2.52 3.94 3.952 6.613 3.952 1.198 0 2.413-.288 3.543-.895 57.186-30.725 93.446-90.283 94.63-155.432.098-5.372-3.01-10.265-7.917-12.466z"/><path d="m82.583 465.004c-.402-6.692-.819-13.612-1.541-20.505-.432-4.119-4.123-7.109-8.241-6.677-4.119.432-7.109 4.122-6.676 8.241.688 6.562 1.094 13.313 1.487 19.842.609 10.125 1.192 19.819 2.736 28.885-17.93-7.091-39.485-25.235-49.538-47.894-10.462-23.559-4.835-44.312 1.727-57.575.796-1.61 2.164-2.81 3.851-3.38 1.687-.571 3.502-.446 5.112.351 12.507 6.186 21.285 15.102 26.836 27.257 1.721 3.768 6.172 5.425 9.938 3.707 3.768-1.721 5.427-6.171 3.706-9.938-7.042-15.419-18.108-26.695-33.829-34.47-5.198-2.573-11.08-2.97-16.564-1.118-5.486 1.854-9.924 5.74-12.496 10.941-11.288 22.813-11.996 47.784-1.992 70.311 13.879 31.283 44.991 53.618 67.22 58.751.779.18 1.562.268 2.338.268 2.718 0 5.332-1.082 7.292-3.085 2.538-2.593 3.519-6.248 2.621-9.79-2.531-9.916-3.239-21.674-3.987-34.122z"/><path d="m402.957 45.41c12.093 11.461 25.156 15.195 38.054 15.195 13.413 0 26.646-4.041 38.41-7.633 8.622-2.632 16.765-5.119 24.009-5.885.004 0 .009-.001.014-.001 3.344-.36 6.198-2.387 7.633-5.422 1.43-3.024 1.188-6.5-.648-9.303-9.457-14.416-33.336-30.613-58.961-32.234-18.604-1.18-36.109 5.907-49.276 19.964-6.734 7.185-6.39 18.545.765 25.319zm10.18-15.063c6.686-7.138 17.922-15.351 34.223-15.351 1.032 0 2.085.033 3.158.101 16.127 1.021 32.106 9.457 41.663 18.73-5.571 1.266-11.253 3.001-17.14 4.798-22.339 6.822-43.44 13.265-61.769-4.105-1.182-1.119-1.243-2.99-.135-4.173z"/><path d="m144.402 413.954c-.404-4.109-4.056-7.121-8.169-6.734-4.123.389-7.151 4.048-6.761 8.172.086.917 2.315 22.677 19.241 41.273 1.48 1.626 3.511 2.451 5.548 2.451 1.802 0 3.609-.646 5.047-1.954 3.063-2.789 3.286-7.532.498-10.596-13.442-14.766-15.386-32.435-15.404-32.612z"/><path d="m61.516 273.013c-3.934-1.302-8.176.829-9.478 4.761-1.303 3.932.829 8.176 4.761 9.479 18.813 6.234 29.119 20.551 29.333 20.853 1.456 2.094 3.79 3.217 6.163 3.217 1.47 0 2.956-.431 4.257-1.331 3.408-2.355 4.261-7.027 1.906-10.434-.524-.758-13.095-18.643-36.942-26.545z"/><path d="m504.926 88.162c-.913-.051-22.716-1.119-43.602 12.874-3.441 2.306-4.362 6.965-2.057 10.406 1.447 2.16 3.82 3.327 6.238 3.327 1.435 0 2.886-.412 4.167-1.27 16.506-11.059 34.133-10.374 34.427-10.359 4.122.218 7.653-2.936 7.888-7.063.236-4.136-2.925-7.679-7.061-7.915z"/><path d="m259.363 146.473c1.403 2.356 3.894 3.663 6.45 3.663 1.305 0 2.628-.341 3.831-1.058 21.589-12.861 30.028-33.037 30.377-33.889 1.563-3.824-.264-8.178-4.081-9.757-3.815-1.579-8.197.24-9.791 4.051-.068.164-7.046 16.5-24.181 26.707-3.558 2.12-4.725 6.724-2.605 10.283z"/></g></svg>